<mxfile host="app.diagrams.net" modified="2024-06-14T11:38:47.410Z" agent="Mozilla/5.0 (Windows NT 10.0; Win64; x64) AppleWebKit/537.36 (KHTML, like Gecko) Chrome/109.0.0.0 Safari/537.36" etag="aD75q0xw0RnKlGnlpbfQ" version="24.5.4" type="github">
  <diagram name="Page-1" id="vfk7XCJrGL0AQ6C8iMgP">
    <mxGraphModel dx="1434" dy="707" grid="1" gridSize="10" guides="1" tooltips="1" connect="1" arrows="1" fold="1" page="1" pageScale="1" pageWidth="850" pageHeight="1100" math="0" shadow="0">
      <root>
        <mxCell id="0" />
        <mxCell id="1" parent="0" />
        <mxCell id="h2ZZU_UjeOlBblTepUTP-1" value="Car" style="swimlane;fontStyle=1;align=center;verticalAlign=top;childLayout=stackLayout;horizontal=1;startSize=29.75;horizontalStack=0;resizeParent=1;resizeParentMax=0;resizeLast=0;collapsible=0;marginBottom=0;" vertex="1" parent="1">
          <mxGeometry x="230" y="50" width="159" height="127.75" as="geometry" />
        </mxCell>
        <mxCell id="h2ZZU_UjeOlBblTepUTP-2" value="-Engine engine" style="text;strokeColor=none;fillColor=none;align=left;verticalAlign=top;spacingLeft=4;spacingRight=4;overflow=hidden;rotatable=0;points=[[0,0.5],[1,0.5]];portConstraint=eastwest;" vertex="1" parent="h2ZZU_UjeOlBblTepUTP-1">
          <mxGeometry y="29.75" width="159" height="30" as="geometry" />
        </mxCell>
        <mxCell id="h2ZZU_UjeOlBblTepUTP-3" style="line;strokeWidth=1;fillColor=none;align=left;verticalAlign=middle;spacingTop=-1;spacingLeft=3;spacingRight=3;rotatable=0;labelPosition=right;points=[];portConstraint=eastwest;strokeColor=inherit;" vertex="1" parent="h2ZZU_UjeOlBblTepUTP-1">
          <mxGeometry y="59.75" width="159" height="8" as="geometry" />
        </mxCell>
        <mxCell id="h2ZZU_UjeOlBblTepUTP-4" value="+Car(Engine engine)" style="text;strokeColor=none;fillColor=none;align=left;verticalAlign=top;spacingLeft=4;spacingRight=4;overflow=hidden;rotatable=0;points=[[0,0.5],[1,0.5]];portConstraint=eastwest;" vertex="1" parent="h2ZZU_UjeOlBblTepUTP-1">
          <mxGeometry y="67.75" width="159" height="30" as="geometry" />
        </mxCell>
        <mxCell id="h2ZZU_UjeOlBblTepUTP-5" value="+void startEngine()" style="text;strokeColor=none;fillColor=none;align=left;verticalAlign=top;spacingLeft=4;spacingRight=4;overflow=hidden;rotatable=0;points=[[0,0.5],[1,0.5]];portConstraint=eastwest;" vertex="1" parent="h2ZZU_UjeOlBblTepUTP-1">
          <mxGeometry y="97.75" width="159" height="30" as="geometry" />
        </mxCell>
        <mxCell id="h2ZZU_UjeOlBblTepUTP-6" value="Engine" style="swimlane;fontStyle=1;align=center;verticalAlign=top;childLayout=stackLayout;horizontal=1;startSize=29.2;horizontalStack=0;resizeParent=1;resizeParentMax=0;resizeLast=0;collapsible=0;marginBottom=0;" vertex="1" parent="1">
          <mxGeometry x="258" y="227" width="104" height="66.2" as="geometry" />
        </mxCell>
        <mxCell id="h2ZZU_UjeOlBblTepUTP-7" style="line;strokeWidth=1;fillColor=none;align=left;verticalAlign=middle;spacingTop=-1;spacingLeft=3;spacingRight=3;rotatable=0;labelPosition=right;points=[];portConstraint=eastwest;strokeColor=inherit;" vertex="1" parent="h2ZZU_UjeOlBblTepUTP-6">
          <mxGeometry y="29.2" width="104" height="8" as="geometry" />
        </mxCell>
        <mxCell id="h2ZZU_UjeOlBblTepUTP-8" value="+void start()" style="text;strokeColor=none;fillColor=none;align=left;verticalAlign=top;spacingLeft=4;spacingRight=4;overflow=hidden;rotatable=0;points=[[0,0.5],[1,0.5]];portConstraint=eastwest;" vertex="1" parent="h2ZZU_UjeOlBblTepUTP-6">
          <mxGeometry y="37.2" width="104" height="29" as="geometry" />
        </mxCell>
        <mxCell id="h2ZZU_UjeOlBblTepUTP-9" value="" style="curved=1;startArrow=none;endArrow=none;exitX=0.5;exitY=1;entryX=0.5;entryY=0;rounded=0;" edge="1" parent="1" source="h2ZZU_UjeOlBblTepUTP-1" target="h2ZZU_UjeOlBblTepUTP-6">
          <mxGeometry relative="1" as="geometry">
            <Array as="points" />
          </mxGeometry>
        </mxCell>
      </root>
    </mxGraphModel>
  </diagram>
</mxfile>
